<svg width="110" height="29" viewBox="0 0 110 29" fill="none" xmlns="http://www.w3.org/2000/svg">
<path d="M4.08606 0.809021C7.56528 0.809021 9.74991 1.25404 11.53 2.91274C12.9864 4.28824 13.6741 6.02785 13.6741 8.25293C13.6741 9.30479 13.5123 10.3971 12.865 11.449C12.2582 12.5008 11.4491 13.0267 10.8422 13.3099C11.3277 13.4313 12.9864 13.8763 14.3214 15.2518C15.7779 16.7892 16.1015 18.6501 16.1015 20.3088C16.1015 22.2507 15.616 23.7881 14.3214 25.1636C12.1773 27.4291 8.81942 27.7932 6.75616 27.7932H0V0.809021H4.08606ZM4.12652 12.4199H5.38066C6.39206 12.4199 7.76756 12.2985 8.73851 11.3681C9.669 10.478 9.79037 9.22388 9.79037 8.29339C9.79037 7.48427 9.669 6.51332 8.81942 5.7042C7.88893 4.81417 6.7157 4.6928 5.54248 4.6928H4.12652V12.4199ZM4.12652 23.9094H6.63479C7.80802 23.9094 9.669 23.7071 10.7209 22.8576C11.53 22.2103 12.0559 21.0775 12.0559 19.8638C12.0559 18.7715 11.6513 17.7197 10.9636 17.0319C9.83082 15.9396 8.17212 15.8182 6.7157 15.8182H4.12652V23.9094Z" fill="white"/>
<path d="M44.8253 14.3214C44.8253 22.2508 38.8783 28.3192 30.7871 28.3192C22.6959 28.3192 16.7488 22.2508 16.7488 14.3214C16.7488 6.39202 22.6959 0.323608 30.7871 0.323608C38.8783 0.323608 44.8253 6.39202 44.8253 14.3214ZM40.6988 14.3214C40.6988 8.33391 36.5723 4.12648 30.7871 4.12648C25.0018 4.12648 20.8753 8.33391 20.8753 14.3214C20.8753 20.3089 25.0018 24.5163 30.7871 24.5163C36.5723 24.5163 40.6988 20.3089 40.6988 14.3214Z" fill="white"/>
<path d="M60.32 18.9334H48.8304L45.2299 27.7991H43.288L54.6561 0L65.8624 27.7991H63.9205L60.32 18.9334ZM59.6727 17.3152L54.6157 4.53108L49.4777 17.3152H59.6727Z" fill="white"/>
<path d="M72.6186 0.809021C74.4391 0.809021 77.1497 0.930389 79.1725 2.3059C80.7503 3.35775 82.1258 5.42101 82.1258 8.29339C82.1258 12.4199 79.4152 15.4541 75.3292 15.7373L83.9058 27.7932H80.2648L72.0522 15.98H71.2836V27.799H68.2898V0.809021H72.6186ZM71.2836 13.3099H73.185C76.907 13.3099 79.132 11.5299 79.132 8.3743C79.132 6.87743 78.687 5.38056 76.9879 4.40961C75.7742 3.72186 74.3987 3.64094 73.1041 3.64094H71.2836V13.3099Z" fill="white"/>
<path d="M86.3332 27.799V0.809021H95.5167C98.2273 0.809021 102.758 1.17313 106.238 4.53098C109.393 7.56518 110 11.449 110 14.3618C110 17.9219 109.11 21.0775 106.48 23.7071C104.336 25.8513 100.736 27.7932 96.1236 27.7932H86.3332V27.799ZM93.3321 21.8462H94.7481C96.4472 21.8462 98.8341 21.6843 100.655 19.9043C101.545 19.0547 102.718 17.3555 102.718 14.3618C102.718 11.8535 101.949 9.70935 100.614 8.45522C98.9555 6.91789 96.7709 6.75606 95.0313 6.75606H93.3321V21.8462Z" fill="white"/>
</svg>
